<svg width="25" height="25" viewBox="0 0 25 25" fill="none" xmlns="http://www.w3.org/2000/svg">
<g clip-path="url(#clip0_7_3)">
<path d="M9.48691 22.5791C10.0392 22.5791 10.4869 22.1314 10.4869 21.5791C10.4869 21.0268 10.0392 20.5791 9.48691 20.5791C8.93462 20.5791 8.48691 21.0268 8.48691 21.5791C8.48691 22.1314 8.93462 22.5791 9.48691 22.5791Z" stroke="white" stroke-width="2" stroke-linecap="round" stroke-linejoin="round"/>
<path d="M20.4869 22.5791C21.0392 22.5791 21.4869 22.1314 21.4869 21.5791C21.4869 21.0268 21.0392 20.5791 20.4869 20.5791C19.9346 20.5791 19.4869 21.0268 19.4869 21.5791C19.4869 22.1314 19.9346 22.5791 20.4869 22.5791Z" stroke="white" stroke-width="2" stroke-linecap="round" stroke-linejoin="round"/>
<path d="M1.48691 1.5791H5.48691L8.16691 14.9691C8.25835 15.4295 8.50882 15.8431 8.87445 16.1374C9.24009 16.4317 9.69761 16.5881 10.1669 16.5791H19.8869C20.3562 16.5881 20.8137 16.4317 21.1794 16.1374C21.545 15.8431 21.7955 15.4295 21.8869 14.9691L23.4869 6.5791H6.48691" stroke="white" stroke-width="2" stroke-linecap="round" stroke-linejoin="round"/>
</g>
<defs>
<clipPath id="clip0_7_3">
<rect width="24" height="24" fill="white" transform="translate(0.486908 0.579102)"/>
</clipPath>
</defs>
</svg>
